<svg width="39" height="32" viewBox="0 0 39 32" fill="none" xmlns="http://www.w3.org/2000/svg">
<path d="M8.88 0.499995C11.4 0.499995 13.47 1.30999 15.09 2.93C16.71 4.49 17.52 6.56 17.52 9.14C17.52 10.34 17.37 11.54 17.07 12.74C16.77 13.94 16.14 15.74 15.18 18.14L9.96 31.1H1.05L4.92 16.88C3.42 16.22 2.25 15.23 1.41 13.91C0.57 12.59 0.15 11 0.15 9.14C0.15 6.56 0.96 4.49 2.58 2.93C4.26 1.30999 6.36 0.499995 8.88 0.499995ZM30.12 0.499995C32.64 0.499995 34.71 1.30999 36.33 2.93C37.95 4.49 38.76 6.56 38.76 9.14C38.76 10.34 38.61 11.54 38.31 12.74C38.01 13.94 37.38 15.74 36.42 18.14L31.2 31.1H22.29L26.16 16.88C24.66 16.22 23.49 15.23 22.65 13.91C21.81 12.59 21.39 11 21.39 9.14C21.39 6.56 22.2 4.49 23.82 2.93C25.5 1.30999 27.6 0.499995 30.12 0.499995Z" fill="#4D434B"/>
</svg>
