<svg width="16" height="16" viewBox="0 0 16 16" fill="none" xmlns="http://www.w3.org/2000/svg">
<path d="M15.5647 11.7424L13.3318 9.50954C12.5344 8.71209 11.1787 9.0311 10.8598 10.0678C10.6205 10.7855 9.82308 11.1842 9.10538 11.0247C7.51049 10.626 5.35739 8.5526 4.95866 6.87797C4.71943 6.16024 5.1979 5.36279 5.9156 5.12359C6.95228 4.80461 7.27126 3.44895 6.47381 2.65151L4.24096 0.418659C3.60301 -0.139553 2.64607 -0.139553 2.08786 0.418659L0.572713 1.93381C-0.942433 3.5287 0.732202 7.75516 4.4802 11.5032C8.22819 15.2511 12.4547 17.0056 14.0495 15.4106L15.5647 13.8955C16.1229 13.2575 16.1229 12.3006 15.5647 11.7424Z" fill="#56A000"/>
</svg>
