<svg width="18" height="18" viewBox="0 0 18 18" fill="none" xmlns="http://www.w3.org/2000/svg">
<g clip-path="url(#clip0)">
<path d="M17.8396 13.0253C17.7913 12.9443 17.492 12.294 16.0519 10.9574C14.5443 9.55777 14.7468 9.78503 16.5627 7.36498C17.6686 5.89112 18.1108 4.99105 17.9724 4.60627C17.8408 4.23949 17.0273 4.33625 17.0273 4.33625L14.3226 4.352C14.3226 4.352 14.1224 4.325 13.9727 4.41388C13.8276 4.50164 13.7342 4.70415 13.7342 4.70415C13.7342 4.70415 13.3055 5.84499 12.734 6.81481C11.529 8.86134 11.0464 8.96935 10.8495 8.84221C10.3916 8.54632 10.5063 7.65187 10.5063 7.01733C10.5063 5.0338 10.8067 4.20687 9.92017 3.9931C9.6254 3.92222 9.40938 3.87497 8.6567 3.86709C7.69138 3.85697 6.87344 3.87047 6.41104 4.09661C6.10276 4.24737 5.86537 4.58377 6.01051 4.6029C6.18939 4.62652 6.59442 4.71203 6.80932 5.00455C7.08721 5.38145 7.07708 6.22977 7.07708 6.22977C7.07708 6.22977 7.23685 8.56432 6.70468 8.85459C6.33903 9.05373 5.83837 8.64757 4.76391 6.79006C4.21375 5.83936 3.79747 4.78741 3.79747 4.78741C3.79747 4.78741 3.71759 4.59165 3.5747 4.48701C3.40144 4.35988 3.15842 4.31938 3.15842 4.31938L0.586481 4.33513C0.586481 4.33513 0.200577 4.34638 0.0588165 4.51402C-0.0671928 4.66365 0.0486908 4.97192 0.0486908 4.97192C0.0486908 4.97192 2.06259 9.68265 4.34201 12.0577C6.43354 14.2347 8.80746 14.0919 8.80746 14.0919H9.88304C9.88304 14.0919 10.2082 14.0559 10.3736 13.877C10.5266 13.7127 10.521 13.4044 10.521 13.4044C10.521 13.4044 10.4996 11.9609 11.1701 11.7483C11.8306 11.539 12.6789 13.1434 13.5778 13.7611C14.2574 14.228 14.7738 14.1256 14.7738 14.1256L17.1781 14.0919C17.1781 14.0919 18.4359 14.0142 17.8396 13.0253Z" fill="#56A000"/>
</g>
<defs>
<clipPath id="clip0">
<rect width="18" height="18" fill="white"/>
</clipPath>
</defs>
</svg>
