<svg width="24" height="24" viewBox="0 0 24 24" fill="none" xmlns="http://www.w3.org/2000/svg">
<g clip-path="url(#clip0)">
<path d="M23.7862 17.3674C23.7216 17.2593 23.3226 16.3923 21.4025 14.6102C19.3923 12.744 19.6623 13.047 22.0835 9.82029C23.5581 7.85515 24.1477 6.65506 23.9632 6.14202C23.7877 5.65298 22.7031 5.78199 22.7031 5.78199L19.0968 5.803C19.0968 5.803 18.8298 5.76699 18.6303 5.8855C18.4368 6.00251 18.3123 6.27253 18.3123 6.27253C18.3123 6.27253 17.7407 7.79364 16.9787 9.08674C15.372 11.8154 14.7285 11.9595 14.466 11.7899C13.8554 11.3954 14.0084 10.2028 14.0084 9.35676C14.0084 6.71206 14.409 5.60948 13.2269 5.32446C12.8338 5.22995 12.5458 5.16695 11.5422 5.15645C10.2552 5.14295 9.16457 5.16095 8.54803 5.46247C8.137 5.66349 7.82047 6.11202 8.01399 6.13752C8.25251 6.16902 8.79255 6.28303 9.07907 6.67306C9.44959 7.1756 9.43609 8.30668 9.43609 8.30668C9.43609 8.30668 9.64911 11.4194 8.93956 11.8064C8.45202 12.072 7.78447 11.5304 6.35186 9.05374C5.61831 7.78614 5.06327 6.38354 5.06327 6.38354C5.06327 6.38354 4.95676 6.12252 4.76625 5.98301C4.53523 5.8135 4.21121 5.75949 4.21121 5.75949L0.781954 5.78049C0.781954 5.78049 0.267416 5.7955 0.0784017 6.01901C-0.0896107 6.21853 0.0649007 6.62956 0.0649007 6.62956C0.0649007 6.62956 2.7501 12.9105 5.78932 16.0773C8.57803 18.98 11.7433 18.7895 11.7433 18.7895H13.1774C13.1774 18.7895 13.6109 18.7415 13.8314 18.5029C14.0354 18.2839 14.0279 17.8729 14.0279 17.8729C14.0279 17.8729 13.9994 15.9482 14.8935 15.6647C15.7741 15.3857 16.9051 17.5249 18.1037 18.3484C19.0098 18.971 19.6984 18.8345 19.6984 18.8345L22.9041 18.7895C22.9041 18.7895 24.5812 18.686 23.7862 17.3674Z" fill="white"/>
</g>
<defs>
<clipPath id="clip0">
<rect width="24" height="24" fill="white"/>
</clipPath>
</defs>
</svg>
