<svg width="20" height="20" viewBox="0 0 20 20" fill="none" xmlns="http://www.w3.org/2000/svg">
<g clip-path="url(#clip0)">
<path d="M19.8665 9.6273C18.0487 7.41263 14.2002 4.82812 9.99996 4.82812C5.78463 4.82812 1.93596 7.4302 0.13341 9.6273C-0.0445512 9.8442 -0.0445512 10.1566 0.13341 10.3735C1.99427 12.6417 5.8518 15.1727 9.99996 15.1727C14.2955 15.1727 18.1276 12.492 19.8665 10.3735C20.0445 10.1566 20.0445 9.8442 19.8665 9.6273ZM13.9958 10.0004C13.9958 12.2037 12.2033 13.9962 9.99992 13.9962C7.79655 13.9962 6.00408 12.2036 6.00408 10.0004C6.00408 7.79711 7.79659 6.00456 9.99992 6.00456C12.2035 6.0046 13.9958 7.79734 13.9958 10.0004ZM1.38278 10.0006C2.04486 9.31244 3.64125 7.82738 5.88223 6.87424C4.47588 8.72216 4.47533 11.2771 5.88157 13.1257C4.17768 12.4035 2.59486 11.2626 1.38278 10.0006ZM14.1177 13.1266C15.524 11.2786 15.5245 8.72369 14.1184 6.87511C15.8222 7.59726 17.405 8.73824 18.6171 10.0002C17.9551 10.6884 16.3587 12.1734 14.1177 13.1266Z" fill="white"/>
<path d="M7.99994 9.99999C7.99994 11.1028 8.89711 12 9.99993 12C11.1027 12 11.9999 11.1028 11.9999 9.99999C11.9999 8.89717 11.1027 8 9.99993 8C8.89711 8 7.99994 8.89717 7.99994 9.99999ZM10.8235 9.99999C10.8235 10.4541 10.454 10.8235 9.99993 10.8235C9.54582 10.8235 9.17641 10.4541 9.17641 9.99999C9.17641 9.54588 9.54582 9.17647 9.99993 9.17647C10.454 9.17647 10.8235 9.54588 10.8235 9.99999Z" fill="white"/>
<path d="M10 2.54902C10.3249 2.54902 10.5882 2.28565 10.5882 1.96078V0.588235C10.5882 0.263373 10.3249 0 10 0C9.67515 0 9.41177 0.263373 9.41177 0.588235V1.96078C9.41177 2.28565 9.67515 2.54902 10 2.54902Z" fill="white"/>
<path d="M13.5098 3.33614C13.7919 3.497 14.1512 3.39892 14.3122 3.11657L15.0951 1.74402C15.256 1.46182 15.1578 1.10261 14.8755 0.941629C14.5933 0.780688 14.2341 0.878923 14.0731 1.1612L13.2903 2.53375C13.1294 2.8159 13.2276 3.17516 13.5098 3.33614Z" fill="white"/>
<path d="M5.68786 3.11656C5.8488 3.39876 6.20801 3.49703 6.49025 3.33609C6.77245 3.17515 6.87072 2.8159 6.70978 2.5337L5.92695 1.16115C5.76601 0.878955 5.40672 0.780681 5.12456 0.941622C4.84236 1.10256 4.74409 1.46182 4.90503 1.74401L5.68786 3.11656Z" fill="white"/>
<path d="M10 17.4512C9.67515 17.4512 9.41177 17.7145 9.41177 18.0394V19.412C9.41177 19.7368 9.67515 20.0002 10 20.0002C10.3249 20.0002 10.5882 19.7368 10.5882 19.412V18.0394C10.5882 17.7145 10.3249 17.4512 10 17.4512Z" fill="white"/>
<path d="M6.49024 16.6643C6.20805 16.5034 5.84883 16.6016 5.68785 16.8838L4.90503 18.2563C4.74409 18.5385 4.84236 18.8978 5.12456 19.0587C5.40679 19.2197 5.76601 19.1214 5.92695 18.8392L6.70977 17.4666C6.87075 17.1845 6.77244 16.8252 6.49024 16.6643Z" fill="white"/>
<path d="M14.3122 16.8838C14.1513 16.6016 13.792 16.5034 13.5098 16.6642C13.2276 16.8252 13.1294 17.1844 13.2903 17.4666L14.0731 18.8392C14.234 19.1214 14.5933 19.2197 14.8755 19.0588C15.1577 18.8978 15.256 18.5386 15.0951 18.2564L14.3122 16.8838Z" fill="white"/>
</g>
<defs>
<clipPath id="clip0">
<rect width="20" height="20" fill="white"/>
</clipPath>
</defs>
</svg>
